<?xml version="1.0" standalone="no"?>
<!DOCTYPE svg PUBLIC "-//W3C//DTD SVG 20010904//EN"
 "http://www.w3.org/TR/2001/REC-SVG-20010904/DTD/svg10.dtd">
<svg version="1.0" xmlns="http://www.w3.org/2000/svg"
 width="1200.000000pt" height="1200.000000pt" viewBox="0 0 1200.000000 1200.000000"
 preserveAspectRatio="xMidYMid meet">
<metadata>
Created by potrace 1.11, written by Peter Selinger 2001-2013
</metadata>
<g transform="translate(0.000000,1200.000000) scale(0.100000,-0.100000)"
fill="#000000" stroke="none">
<path d="M5489 11218 c0 -2 -1 -74 -2 -162 -2 -150 -1 -159 18 -166 11 -4 23
-6 27 -3 4 2 28 -22 53 -54 45 -57 45 -59 44 -130 -2 -76 -5 -80 -54 -79 -26
1 -30 5 -35 36 -8 47 -18 62 -38 56 -10 -3 -33 -7 -52 -10 -19 -2 -87 -12
-150 -21 -63 -9 -128 -18 -145 -20 -16 -2 -64 -9 -105 -15 -41 -6 -91 -13
-110 -16 -65 -9 -68 -11 -61 -52 11 -62 9 -66 -41 -79 -26 -6 -52 -14 -57 -18
-6 -3 -24 23 -42 62 -30 65 -31 70 -19 123 14 63 34 100 55 100 24 0 19 20
-43 173 l-59 145 -72 -28 c-40 -16 -75 -30 -77 -33 -2 -2 7 -30 20 -63 13 -32
22 -62 19 -66 -8 -15 -44 -8 -50 10 -3 9 -14 36 -24 59 l-18 42 -72 -29 c-40
-17 -74 -32 -76 -34 -2 -1 8 -29 21 -62 26 -63 25 -74 -3 -74 -12 0 -24 15
-35 43 -25 59 -33 72 -43 70 -10 -3 -77 -27 -115 -42 l-27 -10 16 -48 c9 -26
20 -53 25 -60 13 -16 1 -33 -22 -33 -13 0 -25 17 -42 59 l-23 59 -78 -30 c-63
-24 -77 -33 -71 -47 43 -101 44 -106 23 -119 -18 -12 -22 -8 -43 40 -13 29
-25 58 -27 65 -3 8 -28 2 -80 -18 -69 -26 -76 -32 -72 -52 3 -12 9 -26 13 -32
7 -10 54 -126 55 -135 1 -14 49 -120 54 -119 3 0 15 4 26 9 14 5 35 -1 75 -23
71 -39 65 -31 94 -110 l25 -67 -48 -25 c-46 -23 -50 -23 -63 -7 -20 23 -30 52
-17 52 6 0 8 4 5 9 -8 12 -53 2 -67 -15 -6 -8 -15 -14 -20 -14 -5 0 -41 -19
-81 -43 -40 -23 -86 -50 -103 -60 -16 -9 -98 -56 -182 -104 l-151 -87 25 -49
c13 -27 21 -53 16 -56 -4 -4 -24 -19 -44 -34 l-37 -26 -53 60 c-30 34 -57 71
-60 83 -9 35 -4 123 8 137 9 11 -11 41 -94 141 l-105 128 -27 -19 c-14 -11
-44 -35 -66 -54 -37 -32 -38 -35 -22 -51 24 -24 67 -81 67 -89 0 -4 -8 -11
-18 -16 -15 -8 -25 -1 -57 40 -22 27 -42 49 -45 49 -3 0 -33 -23 -68 -51 l-62
-50 45 -54 c45 -53 46 -54 25 -65 -12 -7 -26 -8 -30 -3 -5 4 -23 26 -42 49
l-34 41 -62 -49 c-34 -28 -62 -53 -62 -57 0 -3 10 -17 23 -31 12 -14 38 -45
57 -70 19 -25 45 -56 57 -70 12 -14 31 -36 42 -49 17 -19 32 -25 74 -27 112
-5 93 15 471 -488 191 -253 346 -463 346 -467 0 -5 -9 -14 -20 -21 -11 -7 -20
-16 -20 -21 0 -4 -62 -70 -139 -145 -118 -117 -177 -181 -305 -332 -199 -236
-450 -679 -577 -1020 -67 -183 -141 -455 -163 -605 -4 -22 -11 -65 -16 -95 -5
-30 -12 -77 -15 -105 -3 -27 -8 -61 -10 -75 -8 -46 -19 -273 -19 -405 0 -144
9 -306 23 -405 5 -36 12 -87 16 -115 24 -197 112 -536 200 -770 79 -211 272
-576 404 -765 182 -260 331 -431 564 -648 149 -138 472 -372 657 -476 196
-110 460 -226 670 -296 85 -28 326 -93 390 -105 75 -14 262 -45 310 -50 30 -3
66 -8 80 -10 14 -2 84 -7 155 -11 621 -35 1236 89 1798 360 513 248 986 633
1318 1071 365 482 597 996 698 1550 28 153 28 153 36 231 4 38 9 78 11 89 27
147 22 588 -10 830 -43 321 -139 689 -237 904 -11 24 -29 67 -40 95 -32 80
-152 314 -220 427 -163 274 -326 478 -581 731 -76 76 -138 140 -138 144 0 4
-9 15 -21 25 l-21 18 23 33 c13 18 169 227 347 463 306 408 325 431 365 443
23 7 54 16 68 21 16 5 34 4 44 -2 15 -8 23 -4 43 19 13 16 34 40 46 54 11 14
48 59 80 99 l59 74 -30 26 c-16 14 -45 38 -63 53 l-34 26 -40 -49 c-43 -54
-45 -55 -69 -36 -15 11 -12 17 28 62 l45 50 -43 38 c-23 21 -53 46 -66 55 -26
18 -21 21 -85 -61 -20 -25 -24 -26 -41 -13 -19 13 -18 16 23 67 l42 54 -37 33
c-21 19 -50 42 -64 53 l-27 19 -55 -69 c-31 -37 -61 -74 -69 -82 -7 -8 -29
-34 -49 -59 -32 -40 -35 -48 -24 -63 9 -12 12 -41 10 -84 -3 -56 -8 -70 -33
-97 -16 -17 -42 -46 -57 -63 l-28 -32 -41 31 c-23 18 -43 33 -45 35 -2 2 8 25
22 51 l26 48 -54 32 c-29 18 -56 32 -60 32 -4 0 -19 8 -33 19 -15 10 -52 32
-82 49 -30 17 -122 69 -204 116 l-149 85 -21 -44 -21 -45 -52 24 -51 24 14 44
c8 23 18 50 21 58 3 8 7 18 7 22 2 12 19 24 76 55 39 22 61 28 75 22 31 -12
32 -11 45 24 7 17 16 41 20 52 49 115 89 219 87 221 -2 2 -36 17 -76 34 l-73
30 -25 -60 c-18 -41 -32 -60 -44 -60 -28 0 -29 11 -3 74 13 33 23 61 21 62 -2
2 -35 17 -75 33 -80 33 -79 34 -107 -46 -17 -47 -20 -50 -41 -41 l-22 10 23
63 24 63 -75 31 -75 30 -18 -42 c-10 -23 -21 -50 -24 -59 -4 -10 -15 -18 -25
-18 -36 0 -35 3 14 126 3 6 -23 22 -58 36 -101 41 -93 43 -114 -19 -19 -57
-32 -70 -59 -59 -15 5 -15 8 32 122 2 6 -30 25 -72 42 l-76 31 -16 -37 c-9
-20 -37 -90 -63 -154 -43 -109 -45 -118 -28 -124 26 -8 44 -39 58 -102 12 -50
11 -57 -15 -118 -16 -37 -33 -64 -42 -64 -22 0 -103 22 -107 29 -2 3 0 28 4
54 9 58 17 53 -135 72 -27 3 -75 10 -105 15 -56 10 -81 13 -180 24 -30 4 -66
9 -80 12 -14 2 -43 7 -65 9 -22 3 -47 8 -56 10 -22 7 -37 -13 -41 -55 -3 -37
-20 -47 -62 -36 -20 5 -22 12 -24 80 l-2 74 45 55 c36 43 51 55 70 52 14 -1
25 1 26 4 0 3 1 78 2 166 l1 160 -82 3 -81 3 -3 -68 c-3 -60 -5 -68 -23 -68
-18 0 -20 8 -23 68 l-3 67 -84 0 -85 0 0 -70 c0 -67 -1 -70 -22 -66 -20 2 -23
10 -24 47 -4 99 6 89 -84 89 -69 0 -80 -2 -81 -17 -1 -10 -2 -40 -3 -68 -1
-44 -4 -50 -23 -51 -22 -1 -23 3 -23 67 l0 69 -85 0 -85 0 0 -69 c0 -64 -1
-68 -22 -67 -24 1 -25 4 -27 99 l-1 37 -80 0 c-44 0 -80 -1 -81 -2z m333
-2561 c0 -203 -2 -371 -5 -373 -3 -3 -1585 -7 -1796 -5 l-44 1 89 71 c297 235
682 440 1029 546 44 13 87 26 95 28 8 1 35 8 60 15 25 7 56 14 70 17 14 2 45
9 70 14 57 13 64 15 125 24 76 12 75 12 155 20 41 4 76 8 77 9 1 1 19 2 39 1
l36 0 0 -368z m523 358 c237 -29 463 -81 684 -159 277 -97 551 -242 799 -423
64 -47 119 -88 122 -92 13 -16 119 -101 127 -101 5 0 26 23 48 50 22 28 43 50
46 50 4 0 44 -36 90 -79 l84 -79 -165 0 -166 0 1 39 c1 22 -2 44 -5 49 -4 6
-334 11 -920 12 l-913 3 1 360 c0 198 1 366 1 373 1 13 37 12 166 -3z m-2469
-725 c30 -38 44 -49 60 -45 18 4 21 0 20 -29 l-1 -33 -144 0 -144 0 79 78 c44
43 82 79 85 79 3 0 23 -22 45 -50z m79 -808 c0 -278 -3 -368 -12 -372 -7 -3
-171 -4 -365 -4 l-353 1 -105 38 c-58 21 -108 40 -112 44 -18 17 182 385 309
568 l64 92 52 3 c29 2 158 2 287 0 l235 -3 0 -367z m4630 368 c38 0 43 -4 92
-73 116 -164 299 -498 347 -633 l13 -39 -501 0 c-275 0 -506 3 -511 7 -7 4
-10 132 -9 365 1 197 2 361 3 365 2 13 138 15 566 8z m591 -1177 c10 -43 18
-82 20 -88 25 -129 30 -158 48 -293 6 -45 17 -202 21 -294 1 -42 -2 -68 -9
-71 -10 -3 -1223 -1 -1236 2 -4 1 -5 770 -1 809 1 9 122 12 570 12 l569 0 18
-77z m-5796 -353 c310 -105 566 -193 569 -196 5 -5 9 -174 4 -189 -2 -7 -210
-10 -606 -10 l-602 0 1 85 c1 109 11 258 23 335 6 33 13 80 16 105 7 48 12 60
24 60 4 0 261 -86 571 -190z m581 -787 c4 -137 43 -341 99 -513 17 -52 35
-104 40 -115 5 -11 18 -41 29 -67 l20 -48 -603 0 -603 0 -16 43 c-57 153 -126
426 -142 557 -4 30 -9 58 -11 61 -2 4 -6 32 -9 63 l-4 56 599 0 600 0 1 -37z
m5283 5 c-14 -125 -76 -448 -90 -467 -2 -1 -49 13 -106 32 -57 20 -213 74
-348 120 -135 47 -326 113 -425 147 -99 34 -199 68 -222 77 l-43 16 0 53 0 54
619 0 618 0 -3 -32z m-4875 -1138 c244 -322 478 -530 768 -682 51 -27 93 -50
93 -51 0 -1 -357 -1 -792 0 l-793 2 -53 58 c-89 96 -218 261 -296 378 -70 104
-176 282 -188 315 -5 14 60 16 614 15 l621 0 26 -35z m4527 28 c7 -8 -60 -127
-150 -268 -101 -157 -233 -328 -373 -480 -11 -12 -123 -14 -823 -15 -445 0
-806 3 -802 6 4 4 41 24 82 45 182 94 373 238 530 400 109 114 141 150 190
217 19 27 45 60 56 75 l22 27 630 0 c347 -1 634 -4 638 -7z m-3096 -1117 l25
-1 -2 -312 c-1 -172 -2 -319 -2 -326 -1 -11 -18 -12 -83 -7 -321 27 -628 99
-924 215 -209 82 -396 181 -612 324 l-153 101 63 5 c47 4 1538 4 1688 1z
m2160 2 c0 -5 -176 -126 -258 -176 -116 -72 -290 -164 -408 -215 -148 -65
-446 -163 -569 -188 -11 -2 -31 -6 -45 -9 -50 -11 -76 -15 -110 -21 -19 -2
-46 -7 -60 -9 -14 -3 -43 -7 -65 -11 -22 -3 -50 -7 -63 -9 -12 -2 -63 -7 -112
-11 -90 -6 -90 -6 -91 17 -1 32 -1 589 0 614 1 20 8 20 891 20 490 0 890 -1
890 -2z"/>
<path d="M305 8350 c-75 -17 -128 -64 -144 -129 -43 -170 -62 -257 -67 -311
-4 -43 -16 -84 -39 -130 -18 -37 -39 -93 -46 -126 -17 -83 -16 -84 155 -268
81 -87 102 -136 57 -136 -26 0 -105 -54 -134 -92 -58 -75 -71 -149 -72 -394 0
-129 0 -131 30 -174 74 -107 199 -210 306 -252 45 -18 80 -22 216 -24 93 -2
174 1 189 6 39 15 78 46 170 137 94 92 163 191 232 333 43 86 47 101 46 165 0
51 -8 90 -29 145 -15 41 -32 81 -38 87 -28 37 37 49 152 28 117 -20 224 -101
339 -257 23 -31 42 -61 42 -67 0 -5 3 -11 8 -13 4 -1 25 -32 47 -68 39 -64 40
-67 42 -171 3 -118 4 -116 -80 -179 -30 -22 -55 -53 -71 -86 -13 -28 -55 -91
-91 -140 -37 -49 -80 -111 -96 -139 -19 -34 -50 -65 -93 -97 -56 -40 -79 -68
-162 -194 -86 -130 -156 -221 -245 -318 -85 -93 -121 -199 -134 -396 -3 -41
-7 -109 -10 -150 -4 -63 -27 -210 -49 -310 -3 -14 -8 -53 -12 -88 -5 -63 -4
-65 57 -187 l62 -123 1 -144 c1 -137 2 -145 30 -198 31 -59 145 -179 195 -204
28 -15 35 -15 105 8 42 14 91 28 110 31 l34 7 22 -69 c29 -92 75 -172 155
-268 92 -112 116 -148 122 -187 19 -123 102 -282 248 -478 39 -52 82 -113 95
-135 77 -130 173 -236 294 -328 83 -63 142 -120 216 -208 86 -103 192 -176
467 -321 62 -32 180 -106 263 -163 83 -58 153 -105 155 -105 2 0 36 -22 77
-48 175 -116 418 -244 645 -340 161 -69 323 -123 543 -183 84 -23 212 -47 330
-64 14 -2 39 -6 55 -9 28 -4 66 -8 210 -21 61 -6 91 -10 180 -22 28 -4 298 -8
600 -8 485 0 623 4 700 20 11 2 54 7 95 10 135 10 355 40 445 62 35 8 29 7 80
17 111 21 363 99 525 163 123 48 455 206 480 228 8 8 17 13 20 12 3 0 16 6 30
15 14 8 72 43 130 78 106 64 303 194 395 260 28 20 104 65 170 100 312 164
389 220 500 358 35 44 95 101 150 142 112 85 227 204 280 289 22 34 72 106
111 160 183 251 234 346 283 536 6 23 19 50 28 60 51 56 153 191 185 245 19
33 46 92 58 130 16 50 27 70 40 70 9 0 49 -11 88 -24 120 -41 122 -41 194 19
72 58 114 108 149 175 22 41 24 57 24 187 l1 141 63 126 c71 142 71 141 35
321 -33 170 -33 168 -39 270 -24 399 -30 415 -244 655 -17 19 -79 106 -137
193 -90 134 -116 166 -170 205 -43 32 -75 66 -99 107 -34 57 -112 164 -127
175 -4 3 -20 31 -37 63 -39 75 -57 96 -108 132 -55 39 -67 74 -61 185 5 83 8
92 53 166 129 213 251 335 379 378 50 17 177 28 194 17 7 -4 -2 -41 -25 -101
-28 -74 -36 -110 -37 -165 -1 -65 3 -77 53 -178 90 -183 216 -338 346 -427
l50 -35 145 -2 c173 -2 219 5 315 53 79 38 194 141 250 223 30 44 30 45 30
180 -1 235 -14 309 -66 382 -29 41 -94 87 -141 99 l-38 11 29 42 c29 41 44 58
149 172 81 88 89 109 68 192 -9 37 -29 95 -45 128 -19 39 -33 89 -40 140 -5
45 -19 114 -30 155 -11 41 -23 91 -26 110 -18 123 -170 191 -295 132 -89 -41
-123 -94 -122 -187 1 -74 42 -174 89 -218 l29 -27 -95 -98 c-94 -95 -157 -187
-195 -282 -19 -46 -30 -215 -19 -274 8 -42 94 -123 219 -206 109 -72 214 -168
214 -194 0 -7 -30 -29 -67 -47 -58 -29 -80 -34 -146 -36 -89 -2 -138 13 -211
64 -82 58 -79 40 -80 431 l-2 347 -31 50 c-42 67 -88 107 -160 144 -108 55
-179 45 -304 -40 l-64 -44 -109 3 c-129 3 -110 14 -302 -174 -115 -113 -136
-139 -167 -205 -40 -85 -101 -235 -143 -354 l-29 -80 0 -330 c0 -376 -9 -330
103 -515 75 -123 120 -187 256 -368 133 -176 126 -166 131 -193 2 -13 6 -71
10 -129 8 -135 6 -128 86 -315 81 -191 88 -218 84 -338 -4 -95 -5 -105 -31
-216 -9 -36 -17 -70 -18 -76 -10 -47 -40 -171 -43 -174 -7 -9 -57 56 -76 99
-16 35 -21 69 -22 156 -2 95 -5 117 -24 147 -29 47 -79 84 -135 99 -43 11 -50
10 -92 -12 -60 -33 -171 -151 -221 -237 -47 -80 -53 -95 -59 -148 -25 -205
-155 -523 -296 -720 -145 -204 -194 -278 -236 -355 -40 -71 -74 -111 -212
-250 -91 -91 -177 -182 -193 -202 -15 -21 -106 -101 -201 -178 -96 -77 -207
-170 -247 -208 -39 -37 -87 -77 -105 -90 -63 -43 -321 -172 -385 -193 -35 -12
-109 -43 -164 -70 -72 -35 -116 -50 -157 -54 -135 -11 -238 -45 -459 -153
-116 -57 -134 -63 -278 -87 -85 -15 -188 -36 -230 -47 -42 -11 -92 -23 -112
-27 -19 -4 -264 -7 -545 -6 l-509 1 -95 27 c-52 14 -111 29 -130 32 -19 3 -46
7 -60 10 -14 2 -41 7 -60 9 -19 3 -44 7 -55 9 -11 3 -38 8 -60 11 -22 4 -92
32 -155 63 -249 120 -313 142 -470 158 -37 4 -90 23 -166 60 -61 29 -133 60
-161 68 -125 37 -392 192 -487 282 -38 36 -146 128 -241 205 -95 77 -190 161
-211 187 -21 27 -108 118 -194 203 -115 115 -164 171 -188 216 -32 61 -148
244 -161 254 -4 3 -38 50 -75 104 -151 219 -279 513 -302 695 -13 104 -21 125
-89 226 -83 124 -198 226 -254 224 -62 -2 -136 -48 -173 -107 -18 -29 -21 -52
-23 -146 -2 -119 -14 -161 -61 -224 -28 -35 -40 -33 -47 8 -3 14 -13 54 -22
90 -19 73 -18 67 -41 170 -17 76 -24 235 -13 300 5 29 79 214 134 335 18 40
24 79 31 205 3 57 10 113 14 125 4 11 71 104 148 207 78 104 176 245 219 315
130 214 118 157 118 542 l0 336 -53 139 c-30 77 -75 187 -100 245 -46 106 -46
106 -192 250 -80 78 -157 149 -172 157 -18 10 -58 13 -131 12 -105 -3 -106 -2
-149 30 -59 45 -138 82 -184 85 -97 8 -227 -69 -295 -175 l-34 -53 -1 -310
c-1 -170 -2 -330 -3 -354 -1 -39 -7 -50 -44 -86 -71 -67 -126 -89 -232 -89
-84 -1 -96 2 -158 33 -37 19 -67 40 -67 47 0 27 92 110 219 197 75 51 152 113
175 140 40 48 40 48 43 140 2 112 -8 169 -44 245 -50 103 -170 251 -252 308
l-22 16 35 38 c89 99 115 243 59 329 -45 70 -151 110 -238 91z"/>
</g>
</svg>
